<svg width="116" height="101" viewBox="0 0 116 101" fill="none" xmlns="http://www.w3.org/2000/svg">
<path d="M41.7473 16.6262C41.6198 17.0405 40.3451 21.1323 39.0066 25.7421C36.266 35.0133 36.1385 34.2882 40.7912 34.9615L43.022 35.2723L40.9187 34.4954C39.7715 34.081 38.6879 33.4077 38.5605 32.9933C38.3693 32.6308 39.1978 28.7462 40.4726 24.3436C41.6835 19.9928 42.5758 16.2636 42.3846 16.16C42.2572 16.0046 41.9385 16.2118 41.7473 16.6262Z" fill="#DAE7EC"/>
<path d="M68.1978 16.8851C68.1978 17.6103 68.389 17.6103 69.1538 17.0923C69.6637 16.7297 70.1098 16.3672 70.1098 16.2636C70.1098 16.16 69.6637 16.0564 69.1538 16.0564C68.6439 16.0564 68.1978 16.419 68.1978 16.8851Z" fill="#DAE7EC"/>
<path d="M71.5758 16.8333C71.767 17.4031 72.8505 21.3395 73.9977 25.5867C75.9098 32.9933 75.9736 33.3559 74.8263 34.0292C73.9977 34.5472 73.934 34.7026 74.6351 34.7026C77.2483 34.6508 77.2483 34.081 74.8263 25.3277C73.5516 20.6662 72.2131 16.5744 71.8944 16.3154C71.4483 15.9528 71.3845 16.16 71.5758 16.8333Z" fill="#DAE7EC"/>
<path d="M58 29.7821C57.7451 30.041 58.0638 31.3359 58.7649 32.6308C60.0396 34.9097 60.0396 34.9097 60.7407 33.7703C61.3143 32.7344 61.7605 32.579 63.6088 32.7862L65.7121 33.0969L63.6088 31.1805C61.5055 29.3159 59.0836 28.6944 58 29.7821Z" fill="#DAE7EC"/>
<path d="M65.9671 35.1687C63.8638 35.3759 61.2506 35.8939 60.1033 36.4118C58.7649 36.9816 57.9363 37.0851 57.6814 36.7226C57.4264 36.4118 56.8528 36.3082 56.4066 36.4636C55.9605 36.5672 54.4945 36.36 53.1561 35.9975C51.7539 35.5831 49.077 35.2723 47.1649 35.2723C43.8506 35.3241 44.0418 35.3759 50.6704 36.5672L57.6814 37.8103L64.3737 36.5672C68.0704 35.8421 71.6396 35.1687 72.3407 35.0651C74.1253 34.7026 70.5561 34.8062 65.9671 35.1687Z" fill="#DAE7EC"/>
<path d="M38.7516 38.5354C38.6242 39.9856 38.4967 41.2287 38.4967 41.2805C38.5604 41.3323 41.8747 40.7108 45.8901 39.9339L53.2198 38.4836L48.1209 37.6031C45.3165 37.0851 42.1297 36.5154 40.9824 36.2564L39.0066 35.8421L38.7516 38.5354Z" fill="#DAE7EC"/>
<path d="M69.7912 36.8262C66.9868 37.3441 63.9912 37.9657 63.0989 38.121C61.9516 38.38 63.4176 38.7944 68.7714 39.6749C72.7868 40.3482 76.1011 40.8662 76.2286 40.7626C76.5472 40.5036 75.6549 35.7385 75.2725 35.7903C75.0813 35.7903 72.5956 36.2564 69.7912 36.8262Z" fill="#DAE7EC"/>
<path d="M9.87911 47.5995C7.45713 48.4282 6.05493 50.241 6.05493 52.5718C6.05493 55.3169 7.45713 56.7154 13.6395 59.9267C18.8022 62.6718 21.033 64.4846 21.033 66.0385C21.033 67.9031 19.0571 69.4569 16.189 69.7677C14.022 69.9749 13.3209 69.8195 11.4725 68.5764C10.3253 67.7477 8.73185 65.9349 7.90328 64.4846L6.43735 61.8949V66.6082L6.37361 71.3215L13.8945 71.1144C22.4989 70.8554 24.0286 70.2856 25.367 66.9708C27.0879 62.7236 24.4747 59.2533 16.9538 55.8349C12.1099 53.6077 10.3253 51.7949 11.345 50.0338C12.3648 48.221 16.0615 47.7031 18.8659 48.9461C21.2242 49.982 22.6901 51.4841 23.3275 53.5559C24.0923 56.1974 24.9209 54.8508 24.7297 51.1215L24.5384 47.3923L17.8461 47.2887C14.1494 47.2369 10.5802 47.3923 9.87911 47.5995Z" fill="#DAE7EC"/>
<path d="M52.0088 47.5995C51.8176 47.8585 52.2 48.1692 52.9011 48.3246C54.1121 48.5836 54.1758 49.0497 54.2395 56.819C54.3033 67.9549 54.2395 69.0426 53.156 69.7159C51.4989 70.7518 52.2 70.959 57.6813 70.959C62.7802 70.959 64.756 70.3892 61.8242 69.7677C60.6132 69.5087 60.5494 69.0426 60.5494 63.1897C60.5494 55.4205 61.1868 55.2651 64.5648 62.4646C68.7077 71.4251 68.2615 70.959 72.3406 70.959C74.3165 70.959 75.8461 71.1662 75.8461 71.4769C75.8461 72.7718 71.8945 78.2103 70.1099 79.4533C67.1143 81.4733 63.3538 81.0072 60.2945 78.2621C58.8923 77.019 56.5978 76.8636 55.5143 77.8995C53.7934 79.5569 59.7846 82.3539 64.9472 82.3539C70.6835 82.3539 71.1934 81.7841 84.4505 60.7036C86.4901 57.5441 88.4022 54.9026 88.6571 54.9026C88.9758 54.9026 88.9121 55.4723 88.4659 56.1456C87.5099 57.9585 88.211 59.0462 90.4417 59.0462C92.6088 59.0462 93.1187 58.58 93.3099 56.4046C93.3736 55.5759 93.756 54.6436 94.1384 54.3328C95.1582 53.5041 97.3253 54.2292 97.7714 55.5759C98.345 57.3887 96.4329 59.0462 91.589 60.859C86.1077 62.879 84.9604 64.2256 85.2791 68.2656C85.4703 70.1303 88.9758 71.5805 92.4176 71.218C94.011 71.0626 97.6439 70.959 100.576 70.959C105.802 71.0626 107.077 70.5964 104.4 69.6641C102.998 69.198 102.934 68.7836 102.615 62.2574C102.297 55.7831 102.169 55.2651 100.831 54.3328C98.9824 53.1415 95.5406 52.5718 93.2461 53.1415C92.2264 53.3487 88.9758 53.4523 85.9165 53.4005C82.7934 53.2969 80.3077 53.4523 80.3077 53.7113C80.3077 53.9703 81.2 54.5918 82.2198 55.058C83.3033 55.6277 84.1318 56.4564 84.1318 57.0262C84.1318 58.2692 81.0088 63.3969 80.4989 62.9826C79.9253 62.5164 77.1209 56.7672 77.1209 56.0421C77.1209 55.6795 77.567 55.2651 78.0769 55.1097C78.5868 54.9026 79.0329 54.4882 79.0329 54.0739C79.0329 53.5041 77.822 53.3487 73.6154 53.3487C70.6198 53.3487 68.1978 53.5041 68.1978 53.7113C68.1978 53.9185 68.8989 54.6436 69.6637 55.3687C71.6395 57.1297 77.3758 68.5764 76.8659 69.7159C75.9099 71.6841 73.7428 69.0944 70.1736 61.8949C66.0945 53.7631 64.9472 52.6754 62.2703 54.4364L60.5494 55.4723V51.3287V47.1333H56.4703C54.1758 47.1333 52.2 47.3405 52.0088 47.5995ZM98.1538 63.3969C98.1538 65.5205 97.9626 67.5923 97.7714 68.0585C97.2615 69.1462 93.8198 69.1462 92.2901 68.0067C90.2505 66.5046 90.8242 64.3292 93.9472 61.8431C95.4769 60.6 97.0066 59.5641 97.4527 59.5641C97.8989 59.5641 98.1538 60.9108 98.1538 63.3969Z" fill="#DAE7EC"/>
<path d="M28.5538 48.221C27.0879 48.8944 27.0241 51.5877 28.4263 52.0021C30.1472 52.52 31.6769 52.3646 33.1428 51.3805C34.2901 50.6554 34.545 50.0856 34.1626 49.0497C33.8439 47.9103 33.3978 47.6513 31.6769 47.6513C30.5934 47.6513 29.1274 47.9103 28.5538 48.221Z" fill="#DAE7EC"/>
<path d="M29.1912 53.7631C26.1319 53.9185 25.2396 54.4882 27.0879 55.1098C27.8528 55.3169 28.044 56.6636 28.044 62.6718C28.044 67.178 27.789 69.9231 27.4066 69.9231C27.0879 69.9231 26.7693 70.1303 26.7693 70.441C26.7693 70.7518 28.6176 70.959 30.9758 70.959C34.6088 70.959 35.1187 70.8554 34.4176 70.1821C33.9077 69.6641 33.6528 67.178 33.7165 61.9985C33.844 56.4046 33.6528 54.4364 33.0154 54.0739C32.5693 53.8149 30.8484 53.6595 29.1912 53.7631Z" fill="#DAE7EC"/>
<path d="M39.7076 53.7631C37.3494 54.3328 35.6923 55.8349 35.6923 57.3887C35.6923 59.3051 36.5846 60.1339 41.1098 62.4128C45.9538 64.8472 47.8021 66.2456 47.8021 67.3333C47.8021 68.68 45.6989 69.9231 43.5318 69.9231C41.1098 69.9231 38.4967 67.6441 37.8593 65.0026C37.1582 61.8949 36.3296 63.0344 36.3296 67.0744V71.0108L42.8945 70.7C50.9252 70.2856 52.5186 69.5605 52.7736 66.2974C53.0285 63.6041 52.0087 62.62 47.0373 60.5482C44.9978 59.7195 42.8945 58.4246 42.2571 57.6995C41.2373 56.3528 41.2373 56.301 42.6395 55.3687C43.4681 54.799 44.6791 54.3846 45.3802 54.3846C47.5472 54.3846 50.2241 55.8867 51.0527 57.5959L51.8813 59.3051L52.1362 57.0262C52.4549 53.4523 52.3274 53.3487 46.4 53.4005C43.4681 53.4523 40.4725 53.6077 39.7076 53.7631Z" fill="#DAE7EC"/>
</svg>
