<svg width="354" height="314" viewBox="0 0 354 314" fill="none" xmlns="http://www.w3.org/2000/svg">
<path d="M147.421 41.7271C141.443 42.9831 137.195 44.5182 137.824 45.0764C138.611 45.6347 137.981 45.7742 136.565 45.3556C135.149 44.7973 129.328 46.6116 123.035 49.4027C113.909 53.4498 112.021 54.8453 112.493 57.2178C112.808 58.8924 112.493 59.7298 111.549 59.3111C110.763 58.7529 110.448 57.776 110.92 57.0782C112.493 54.9849 110.133 55.6827 105.256 58.7529C102.739 60.288 101.165 62.2418 101.637 63.0791C102.267 63.9164 101.952 64.1956 101.008 63.6373C98.648 62.3813 90.9386 68.5218 82.7573 78.1511C71.9013 90.8507 70.6426 93.5022 72.8453 99.3636C74.576 103.55 75.3626 104.108 77.5653 103.132C78.9813 102.434 85.904 101.457 92.8266 100.899C104.784 100.061 105.885 99.7822 109.347 95.7351C112.965 91.4089 113.752 89.3156 113.437 84.8498C113.28 83.0356 112.179 82.4773 108.717 82.896C105.099 83.1751 103.84 82.6169 102.424 79.9653C101.323 77.872 101.323 76.8951 102.267 77.4533C103.053 77.872 103.84 77.0347 103.84 75.6391C103.84 72.4293 106.2 70.4756 112.179 68.5218C115.955 67.2658 116.741 67.4053 118 70.1964C118.787 71.8711 120.517 74.5227 121.776 75.9182C123.821 78.0116 124.608 78.2907 126.496 76.8951C127.912 75.9182 129.328 73.6853 129.957 72.1502C131.216 68.3822 138.453 58.8924 138.453 60.7067C138.453 61.544 139.083 61.2649 139.869 60.1484C141.128 58.4738 141.757 58.4738 143.803 60.4276C145.219 61.544 146.32 63.6373 146.32 64.7538C146.32 66.0098 147.107 66.9867 147.893 66.9867C148.837 66.9867 149.467 67.6844 149.467 68.5218C149.467 69.2196 148.837 69.4987 147.893 69.08C146.949 68.6613 146.32 69.7778 146.32 71.7316C146.32 73.5458 145.691 75.36 145.061 75.6391C144.432 75.7787 140.813 78.9884 137.037 82.6169C131.688 87.92 130.587 89.5947 131.845 91.688C133.261 93.9209 133.576 93.7813 134.52 90.432C135.307 87.6409 136.88 86.5244 140.971 85.9662C143.96 85.408 146.32 84.4311 146.32 83.8729C146.32 83.1751 147.579 82.7564 149.152 82.896C150.568 82.896 151.669 82.1982 151.355 81.2213C151.197 80.1049 151.669 79.6862 152.456 80.1049C154.973 81.5004 160.795 72.9876 159.693 69.6382C158.907 67.6844 159.221 66.9867 160.165 67.5449C161.109 67.9636 162.211 67.824 162.84 66.9867C163.312 66.2889 166.773 65.5911 170.549 65.5911C179.517 65.5911 183.136 63.0791 182.192 57.4969C181.877 55.1244 182.035 53.4498 182.664 53.8684C184.867 54.9849 188.8 52.752 188.8 50.24C188.8 47.1698 190.373 46.0533 196.352 45.216C199.184 44.7973 199.813 45.0764 198.555 45.7742C196.824 46.7511 196.981 47.4489 199.027 49.4027C200.443 50.6587 200.915 51.6356 200.128 51.6356C199.341 51.6356 198.083 53.3102 197.453 55.4036C196.667 58.3342 197.139 59.7298 199.499 61.4044C201.387 62.8 202.803 66.1493 203.589 71.592L204.533 79.6862L199.027 81.64C196.037 82.7564 191.16 83.7333 188.171 83.7333C183.136 83.7333 182.664 84.152 178.416 92.944C174.797 100.48 174.483 102.294 176.213 103.271C177.472 103.969 179.045 104.108 179.989 103.69C180.776 103.132 181.091 103.829 180.461 105.225C179.832 106.62 179.36 108.574 179.36 109.551C179.36 110.668 178.416 112.342 177.315 113.319C176.056 114.296 174.325 116.529 173.224 118.343L171.336 121.413L177.629 118.483C183.765 115.692 186.125 115.552 240.091 115.692L296.101 115.971L294.843 112.761C291.381 102.713 287.448 94.8978 286.189 95.5956C285.403 96.1538 285.245 95.456 285.717 94.3396C286.189 93.0836 285.875 92.1067 284.773 92.1067C283.829 92.1067 283.357 91.5484 283.987 90.8507C284.459 90.1529 283.987 89.0364 283.043 88.4782C281.784 87.7804 281.627 88.0596 282.413 89.4551C283.2 90.5716 283.043 90.9902 282.256 90.2924C281.469 89.5947 280.84 88.0596 280.84 86.8036C280.84 85.5476 280.053 84.5707 278.952 84.7102C277.851 84.9893 277.379 84.152 277.851 83.0356C278.952 80.5236 261.803 64.7538 250.947 58.3342C241.979 52.8916 226.56 45.6347 226.56 46.7511C226.56 47.1698 224.829 46.472 222.627 45.216C220.424 43.96 217.592 43.2622 216.333 43.8204C215.075 44.2391 213.973 43.96 213.973 43.4018C213.973 38.936 165.987 37.68 147.421 41.7271ZM205.635 42.704C205.163 43.1227 203.747 43.2622 202.645 42.8436C201.387 42.4249 201.859 42.0062 203.589 42.0062C205.32 41.8667 206.264 42.2853 205.635 42.704ZM126.024 52.6124C128.069 54.8453 127.912 54.9849 125.552 53.1707C123.979 52.1938 122.72 51.0773 122.72 50.7982C122.72 49.6818 123.979 50.3796 126.024 52.6124ZM232.067 53.0311C232.539 53.7289 232.224 54.4267 231.437 54.4267C230.493 54.4267 229.707 53.7289 229.707 53.0311C229.707 52.1938 230.021 51.6356 230.336 51.6356C230.808 51.6356 231.595 52.1938 232.067 53.0311ZM132.947 57.2178C133.419 58.0551 132.789 58.1947 131.531 57.776C128.699 56.7991 128.227 55.8222 130.429 55.8222C131.373 55.8222 132.475 56.3804 132.947 57.2178ZM247.013 58.6133C247.013 59.3111 246.699 60.0089 246.384 60.0089C245.912 60.0089 245.125 59.3111 244.653 58.6133C244.181 57.776 244.496 57.2178 245.283 57.2178C246.227 57.2178 247.013 57.776 247.013 58.6133ZM131.059 62.1022C130.587 63.3582 129.8 64.056 129.485 63.6373C129.013 63.2187 129.171 62.3813 129.8 61.544C131.216 59.3111 132.16 59.7298 131.059 62.1022ZM254.093 64.1956C253.621 64.8933 252.205 65.5911 251.261 65.5911C250.16 65.5911 250.317 65.0329 251.733 64.1956C254.723 62.5209 255.352 62.5209 254.093 64.1956ZM99.12 66.1493C99.12 66.4284 97.8613 67.5449 96.4453 68.5218C93.928 70.336 93.7706 70.1964 95.816 67.9636C97.8613 65.7307 99.12 65.0329 99.12 66.1493ZM155.76 69.08C154.659 70.336 153.4 70.8942 152.771 70.4756C152.299 70.0569 152.928 69.08 154.187 68.3822C157.491 66.4284 157.963 66.7076 155.76 69.08ZM151.04 74.6622C149.939 75.9182 148.68 76.4764 148.051 76.0578C147.579 75.6391 148.208 74.6622 149.467 73.9644C152.771 72.0107 153.243 72.2898 151.04 74.6622ZM108.56 92.1067C108.56 92.6649 107.459 93.5022 106.357 93.9209C104.627 94.4791 104.312 94.0604 104.941 92.5253C105.728 90.8507 105.413 90.5716 103.84 91.4089C102.581 92.1067 102.109 91.9671 102.896 90.9902C103.997 89.3156 108.56 90.2924 108.56 92.1067ZM281.627 94.3396C281.627 95.456 280.997 96.0142 280.053 95.5956C279.267 95.1769 278.48 94.2 278.48 93.3627C278.48 92.6649 279.267 92.1067 280.053 92.1067C280.997 92.1067 281.627 93.0836 281.627 94.3396ZM182.035 100.759C181.563 101.876 181.091 101.457 181.091 99.9218C180.933 98.3867 181.405 97.5493 181.877 98.1076C182.349 98.5262 182.507 99.7822 182.035 100.759ZM285.56 99.0844C286.032 99.7822 285.717 100.48 284.931 100.48C283.987 100.48 283.2 99.7822 283.2 99.0844C283.2 98.2471 283.515 97.6889 283.829 97.6889C284.301 97.6889 285.088 98.2471 285.56 99.0844Z" fill="#269ADB"/>
<path d="M271.4 47.1698C273.288 48.4258 277.536 53.0311 280.997 57.2178C287.448 64.8933 305.069 80.2444 306.171 79.128C306.485 78.8489 306.013 76.616 305.069 74.2436C303.653 70.6151 302.709 70.0569 299.248 70.6151C296.101 71.0338 295.629 70.8942 297.36 69.9173C298.619 69.2196 300.192 68.9404 300.821 69.2196C301.451 69.6382 302.08 68.9404 302.08 67.6844C302.08 66.568 300.979 65.1724 299.72 64.7538C298.461 64.1956 297.675 63.3582 298.147 62.8C298.619 62.2418 297.517 60.1484 295.787 58.4738C294.056 56.6596 292.797 55.5431 292.64 56.1013C292.64 56.52 290.595 55.264 288.077 53.3102C285.717 51.2169 280.211 48.4258 275.963 47.1698C268.725 44.9369 268.411 44.9369 271.4 47.1698Z" fill="#269ADB"/>
<path d="M78.6667 49.5422C77.5654 50.7982 76.3067 51.3565 75.8347 50.9378C74.2614 49.5422 62.7761 56.52 58.6854 61.2649C56.3254 63.9165 55.2241 65.5911 56.1681 65.1725C57.1121 64.6142 58.8427 65.312 59.9441 66.7076C61.8321 68.8009 61.8321 68.9405 59.7867 67.4053C56.3254 65.0329 53.0214 67.2658 52.8641 72.2898C52.8641 74.6622 52.2347 76.1973 51.7627 75.9182C51.1334 75.6391 50.3467 76.616 49.8747 78.2907C49.0881 80.6631 49.4027 80.8027 51.6054 79.4071C57.8987 75.2205 64.3494 69.2196 63.5627 68.2427C63.2481 67.6845 63.7201 66.7076 64.6641 66.1493C65.9227 65.5911 66.0801 65.7307 65.4507 66.7076C64.8214 67.6845 64.9787 68.3822 65.6081 68.3822C68.2827 68.3822 71.1147 62.6605 69.3841 60.8462C68.1254 59.5902 68.2827 59.032 70.0134 59.032C71.2721 59.032 71.9014 59.7298 71.4294 60.5671C70.9574 61.4045 71.5867 60.9858 73.0027 59.4507C74.2614 58.0551 77.5654 54.7058 80.2401 52.1938C83.2294 49.2631 84.1734 47.4489 82.7574 47.4489C81.6561 47.4489 79.7681 48.4258 78.6667 49.5422ZM71.2721 55.1245C70.8001 56.3805 70.0134 57.0782 69.6987 56.6596C69.2267 56.2409 69.3841 55.4036 70.0134 54.5662C71.4294 52.3333 72.3734 52.752 71.2721 55.1245ZM59.7867 70.4756C59.7867 70.7547 58.8427 71.1733 57.7414 71.592C56.4827 72.0107 55.5387 71.4525 55.5387 70.4756C55.5387 69.4987 56.4827 68.9405 57.7414 69.3591C58.8427 69.7778 59.7867 70.1965 59.7867 70.4756Z" fill="#269ADB"/>
<path d="M304.44 60.1484C305.069 61.2649 306.643 63.0791 307.744 64.1956C308.845 65.312 310.891 70.336 312.307 75.36C313.723 80.384 315.296 85.408 315.768 86.5244C316.24 87.6409 316.555 89.5947 316.397 90.7111C316.083 92.3858 316.397 92.5253 317.971 90.9902C319.072 90.1529 320.803 89.3156 321.747 89.3156C322.533 89.3156 322.061 90.2924 320.488 91.2693C318.128 92.944 317.971 93.7813 319.229 96.1538C321.432 99.6427 321.432 100.899 319.387 99.7822C318.6 99.3636 317.813 99.7822 317.813 100.759C317.813 102.155 317.499 102.155 316.397 100.62C315.611 99.5031 315.296 97.8284 315.768 96.712C317.656 92.3858 296.259 77.0347 292.64 80.1049C291.067 81.2213 290.909 81.2213 291.696 79.8258C292.483 78.7093 291.381 76.616 288.864 74.5227L284.931 70.8942L287.448 76.616C288.864 79.8258 293.427 85.1289 298.147 88.8969C314.037 101.736 322.533 107.597 322.691 105.783C323.949 88.7573 323.792 80.9422 322.533 80.2444C321.589 79.6862 321.275 78.7093 321.747 78.0116C322.219 77.3138 321.432 77.1742 319.859 77.7324C317.499 78.4302 317.341 78.1511 319.072 76.616C321.432 74.3831 321.589 72.0107 319.072 73.4062C317.971 73.9644 317.813 73.8249 318.443 72.848C319.072 72.0107 318.285 69.9173 316.712 68.3822C312.936 64.4747 302.709 57.6364 304.44 60.1484ZM296.416 84.5707C297.203 86.5244 297.045 86.664 295 85.1289C292.325 83.1751 292.011 82.3378 294.056 82.3378C294.843 82.3378 295.944 83.3147 296.416 84.5707ZM306.328 88.7573C305.856 89.176 306.957 90.9902 309.003 92.6649C310.891 94.2 311.205 94.7582 309.789 93.7813C308.216 92.6649 306.328 92.2462 305.541 92.6649C304.597 93.0836 304.125 92.3858 304.44 91.1298C305.227 87.7804 305.069 87.92 306.328 87.92C306.8 87.92 306.957 88.3387 306.328 88.7573Z" fill="#269ADB"/>
<path d="M46.5707 64.3351C44.3681 65.8702 42.7947 67.824 43.4241 68.5218C43.8961 69.2195 43.4241 69.6382 42.3227 69.4987C38.2321 68.6613 34.2987 77.872 33.6694 90.0133C33.3547 96.5724 33.6694 101.876 34.4561 101.876C35.7147 101.876 40.4347 89.5947 44.0534 76.7555C44.9974 73.2667 47.2001 68.3822 48.7734 65.8702C52.3921 60.5671 52.0774 60.4275 46.5707 64.3351ZM39.9627 80.8027C38.3894 82.1982 36.6587 83.0355 36.1867 82.7564C35.7147 82.3378 36.8161 81.2213 38.3894 80.1049C42.7947 77.3138 43.5814 77.7324 39.9627 80.8027Z" fill="#269ADB"/>
<path d="M65.7654 76.7555C60.8881 80.6631 59.6294 83.8729 64.1921 80.8027C66.5521 78.9884 66.7094 79.128 64.8214 81.2213C63.5628 82.4773 61.6748 83.1751 60.5734 82.7564C56.4828 81.5004 38.8614 95.1769 40.5921 98.3867C41.0641 99.3635 35.5574 104.248 34.4561 103.829C33.9841 103.55 33.5121 105.085 33.5121 107.318C33.5121 111.086 33.6694 111.086 40.2774 104.527C43.8961 100.899 47.3574 98.2471 47.8294 98.6658C49.0881 99.7822 65.2934 84.8498 68.2828 79.6862C71.9014 73.5458 70.9574 72.5689 65.7654 76.7555ZM43.5814 97.5493C43.5814 99.0844 42.7948 100.061 42.1654 99.6427C41.5361 99.224 41.3788 98.1075 42.0081 96.9911C43.1094 94.0604 43.8961 94.3395 43.5814 97.5493Z" fill="#269ADB"/>
<path d="M22.184 90.5716C19.824 95.0373 18.88 98.5262 19.6666 100.62C20.4533 103.271 20.296 103.55 18.88 101.876C17.6213 100.34 17.3066 102.852 17.7786 111.644C18.2506 120.576 19.5093 126.437 23.2853 135.369C26.1173 141.928 28.32 146.254 28.32 144.998C28.32 143.882 32.2533 137.602 36.9733 131.182C41.6933 124.902 45.1546 119.041 44.5253 118.204C44.0533 117.366 44.368 117.227 45.1546 117.645C46.0986 118.204 47.8293 117.227 49.088 115.412C51.92 111.644 55.3813 102.992 54.4373 102.294C53.1786 101.038 40.9066 111.924 42.008 113.459C42.48 114.156 42.1653 114.436 41.3786 114.017C37.288 111.784 29.264 125.46 30.5226 132.438C31.152 135.927 30.9946 136.904 29.8933 135.369C28.4773 133.555 28.1626 133.555 26.904 135.369C25.8026 136.625 25.8026 134.392 26.432 129.089C27.848 118.064 27.376 105.504 25.488 102.294C24.7013 100.899 24.544 96.4329 25.1733 92.1067C25.8026 87.92 26.2746 84.2916 25.96 84.152C25.8026 83.8729 24.072 86.8036 22.184 90.5716ZM44.0533 120.436C44.0533 120.716 42.1653 122.39 39.8053 124.344L35.4 127.693L39.176 123.786C42.7946 120.297 44.0533 119.32 44.0533 120.436Z" fill="#269ADB"/>
<path d="M329.771 102.015C328.984 115.831 329.299 120.995 330.715 122.53C332.445 124.344 332.445 124.484 330.715 123.646C329.141 122.809 328.984 123.507 329.771 126.158C330.243 128.112 330.243 130.903 329.613 132.159C327.568 136.485 327.253 139.276 328.669 142.626C329.928 145.556 330.243 145.277 331.816 139.695C332.917 136.485 333.389 132.857 332.917 131.74C332.445 130.624 332.917 129.926 334.019 130.205C335.12 130.345 335.907 129.089 335.749 127.414C335.749 125.74 336.379 124.763 337.165 125.181C337.952 125.6 338.109 124.623 337.48 122.809C336.693 120.716 336.851 120.018 338.109 120.576C341.413 122.39 340.155 101.457 336.536 93.2231C334.805 89.176 332.76 85.2684 332.131 84.7102C331.501 84.152 330.4 91.8275 329.771 102.015Z" fill="#269ADB"/>
<path d="M300.979 99.5031C301.608 100.899 302.08 102.713 302.08 103.411C302.08 104.248 302.552 104.527 303.339 104.248C303.968 103.829 304.597 105.085 304.597 106.9C304.755 108.714 309.317 115.831 314.824 122.53C324.107 133.973 329.141 139.556 326.624 135.788C326.152 134.95 326.309 133.834 327.253 133.276C328.984 132.299 327.725 125.042 324.736 120.018C321.432 114.296 299.248 95.1769 300.979 99.5031ZM313.093 109.412C313.093 109.83 312.464 110.528 311.52 110.947C310.733 111.365 309.947 111.086 309.947 110.388C309.947 109.551 310.733 108.853 311.52 108.853C312.464 108.853 313.093 109.132 313.093 109.412ZM313.251 116.808C315.296 119.041 315.139 119.18 312.779 117.366C310.104 115.552 309.317 114.436 310.576 114.436C310.891 114.436 312.149 115.552 313.251 116.808ZM319.229 118.901C318.443 120.297 317.499 121.413 317.341 121.413C317.027 121.413 316.869 120.297 316.869 118.901C316.869 117.506 317.813 116.25 318.915 116.25C320.173 116.25 320.331 117.087 319.229 118.901ZM323.635 123.088C323.949 125.46 323.635 125.74 322.533 124.204C321.747 123.088 321.589 121.692 321.904 121.134C323.163 119.46 323.477 119.739 323.635 123.088ZM320.96 126.298C323.163 128.949 323.163 128.949 320.645 127.135C319.072 126.158 317.813 124.623 317.813 123.786C317.813 122.948 317.971 122.669 318.285 122.948C318.443 123.228 319.701 124.763 320.96 126.298Z" fill="#269ADB"/>
<path d="M56.6401 123.786C54.4374 125.042 52.2348 126.856 51.6054 127.554C49.8748 129.787 50.1894 138.02 52.0774 141.23C54.1228 144.44 66.3948 149.743 69.5414 148.627C70.8001 148.208 72.8454 148.906 73.9468 150.301C75.8348 152.395 75.8348 152.534 73.9468 150.999C70.9574 148.627 68.4401 148.906 70.6428 151.278C71.7441 152.395 72.3734 155.046 72.0588 157.279C71.7441 160.628 70.8001 161.187 66.3948 161.605C61.8321 162.024 60.8881 161.605 59.3148 157.837C57.5841 153.511 51.9201 152.255 51.9201 156.302C51.9201 158.116 51.6054 158.116 50.1894 156.302C48.7734 154.628 48.6161 154.628 49.4028 156.721C49.8748 158.116 50.3468 160.21 50.3468 161.466C50.3468 162.861 51.2908 163.28 52.8641 162.722C54.2801 162.164 54.9094 162.443 54.1228 163.42C50.9761 168.025 70.1708 169.141 77.0934 164.676C80.7121 162.443 81.4988 160.908 81.4988 155.186C81.8134 147.789 81.4988 147.371 68.2828 141.23C61.3601 137.741 60.5734 137.044 60.5734 132.578C60.5734 129.787 61.3601 127.693 62.4614 127.693C63.4054 127.693 64.8214 127.275 65.4508 126.577C66.8668 125.321 72.3734 129.647 72.3734 132.159C72.3734 133.136 74.1041 133.973 76.3068 133.973C84.8028 133.973 78.9814 123.786 69.3841 122.111C65.1361 121.274 64.3494 121.553 65.2934 122.948C66.2374 124.484 66.0801 124.623 64.3494 123.088C61.6748 120.855 61.2028 120.995 56.6401 123.786ZM57.2694 132.438C57.7414 132.996 56.7974 135.09 55.0668 136.764C53.3361 138.579 51.9201 139.416 51.9201 138.858C51.9201 138.16 53.1788 136.485 54.7521 134.95C57.2694 132.299 57.2694 132.159 54.5948 132.996C52.8641 133.555 52.0774 133.415 52.7068 132.578C53.9654 130.903 56.1681 130.764 57.2694 132.438ZM62.7761 142.905C62.3041 143.324 61.0454 142.207 59.9441 140.532C57.8988 137.602 58.0561 137.602 60.7308 139.835C62.3041 141.23 63.2481 142.626 62.7761 142.905ZM75.5201 162.443C75.5201 162.861 74.8908 163.559 73.9468 163.978C73.1601 164.396 72.3734 164.117 72.3734 163.42C72.3734 162.582 73.1601 161.884 73.9468 161.884C74.8908 161.884 75.5201 162.164 75.5201 162.443Z" fill="#269ADB"/>
<path d="M112.493 122.39C107.144 123.646 103.84 128.391 103.84 134.811C103.84 139.974 104.627 141.23 109.032 144.161C111.707 146.115 116.269 148.208 118.787 148.906C127.755 151.418 128.384 161.884 119.573 161.884C116.269 161.884 115.011 162.443 115.797 163.559C116.427 164.536 116.269 164.676 115.011 164.117C114.067 163.559 113.595 162.582 114.067 161.884C114.539 161.326 113.595 159.931 112.179 158.954C109.976 157.279 109.661 157.279 110.92 158.954C111.707 160.349 111.549 160.628 110.448 159.931C109.347 159.372 108.56 157.977 108.56 156.86C108.56 154.488 105.413 154.209 105.256 156.581C105.256 157.558 104.627 157.14 103.84 155.604C102.581 152.813 102.424 152.813 102.424 155.744C102.267 157.279 102.739 159.093 103.525 159.652C104.155 160.21 104.627 161.187 104.627 161.745C104.627 165.094 110.448 167.467 118.787 167.467C129.957 167.467 135.307 163.559 135.307 155.186C135.307 148.766 131.688 145.277 120.832 141.091C111.549 137.602 109.032 132.299 115.011 128.252C117.056 126.996 120.675 125.879 123.192 125.879C125.867 126.019 126.811 126.437 125.709 127.135C124.608 127.693 122.72 127.833 121.304 127.414C119.416 126.996 119.416 127.135 121.619 128.391C123.035 129.228 124.293 130.903 124.293 131.88C124.293 133.276 125.867 133.973 129.013 133.973C132.475 133.973 133.733 133.276 133.733 131.461C133.733 125.6 121.304 120.297 112.493 122.39ZM113.909 144.021C114.853 144.58 115.011 145.138 114.224 145.138C112.336 145.138 105.571 138.439 106.672 137.602C107.144 137.183 108.56 138.16 109.976 139.974C111.235 141.649 113.123 143.463 113.909 144.021ZM129.643 152.116C128.856 152.813 128.069 151.697 127.912 149.604C127.755 146.533 127.912 146.254 129.328 148.487C130.272 149.883 130.272 151.557 129.643 152.116ZM128.069 163.978C127.44 165.094 126.339 165.652 125.552 165.234C124.608 164.676 124.765 163.838 126.024 163.14C129.013 161.466 129.013 161.605 128.069 163.978Z" fill="#269ADB"/>
<path d="M88.1067 145.138V167.467H92.8267H97.5467V145.138V122.809H92.8267H88.1067V145.138Z" fill="#269ADB"/>
<path d="M140.027 145.138V167.467H144.747H149.467V157C149.467 146.812 149.624 146.533 153.4 146.533C155.603 146.533 157.333 145.975 157.333 145.138C157.333 144.44 158.749 144.859 160.48 146.115C162.997 148.068 163.627 150.301 163.627 157.977C163.627 167.327 163.627 167.467 168.032 167.467H172.28L171.808 145.138L171.336 122.809H167.56C164.099 122.809 163.784 123.367 163.312 131.322L162.84 139.974L156.075 140.114L149.467 140.253V131.461V122.809H144.747H140.027V145.138Z" fill="#269ADB"/>
<path d="M179.36 145.138V167.467H183.451H187.384L187.227 149.604C186.912 128.252 186.912 128.531 188.957 131.601C189.901 132.857 191.16 133.694 191.947 133.276C192.576 132.857 192.891 133.834 192.419 135.369C191.317 139.137 193.363 150.999 195.093 150.022C195.723 149.604 196.037 150.58 195.565 152.116C195.093 153.651 195.565 157.837 196.667 161.187C198.24 166.211 199.341 167.467 202.173 167.467C205.163 167.467 205.949 166.49 206.736 161.187C207.365 157.698 207.365 154.209 206.736 153.232C206.107 152.395 206.264 152.116 207.208 152.534C208.152 153.092 209.883 149.045 211.456 142.347C213.029 136.206 214.76 131.182 215.232 131.182C215.861 131.182 216.176 139.276 215.861 149.324L215.232 167.467H219.323H223.571L223.256 145.138L223.099 122.809H216.333C209.883 122.809 209.568 122.948 208.624 127.693C207.995 130.484 207.995 134.113 208.624 135.788C209.253 137.462 209.096 138.3 208.309 137.741C207.523 137.044 205.792 140.672 204.376 146.115C201.859 155.604 201.859 155.604 199.971 151.418C198.869 149.045 197.768 144.998 197.296 142.347C194.936 123.646 194.464 122.809 186.283 122.809H179.36V145.138ZM183.608 140.532C183.136 141.928 182.821 141.091 182.821 138.858C182.821 136.485 183.136 135.508 183.608 136.346C183.923 137.323 183.923 139.276 183.608 140.532Z" fill="#269ADB"/>
<path d="M229.707 139.416C229.707 163.42 232.067 167.327 246.384 167.467C252.677 167.467 255.037 166.769 257.712 164.257C260.701 161.466 261.173 159.093 261.803 141.928L262.432 122.809H258.027H253.464L252.835 141.23C252.363 151.418 251.891 160.489 251.576 161.326C251.419 162.303 249.373 162.582 246.069 161.884C243.237 161.326 240.563 161.047 240.248 161.466C239.776 161.745 239.461 161.187 239.619 160.21C239.619 159.233 239.461 150.441 239.461 140.532L239.147 122.809H234.427H229.707V139.416ZM236.787 157.977C237.259 158.396 236.315 159.512 234.899 160.628C233.325 161.605 232.539 161.884 233.168 161.326C233.797 160.628 233.64 159.233 232.696 158.256C231.595 157 231.752 156.581 233.483 156.86C234.899 157 236.315 157.558 236.787 157.977ZM260.701 157.14C260.229 157.558 258.813 157.698 257.712 157.279C256.453 156.86 256.925 156.442 258.656 156.442C260.387 156.302 261.331 156.721 260.701 157.14ZM255.824 163.978C254.408 165.234 253.307 165.792 253.307 165.094C253.307 164.396 254.093 163.14 255.195 162.164C256.139 161.326 257.397 160.768 257.712 161.187C258.027 161.466 257.24 162.722 255.824 163.978ZM249.373 164.676C249.845 165.373 249.531 166.071 248.744 166.071C247.8 166.071 247.013 165.373 247.013 164.676C247.013 163.838 247.328 163.28 247.643 163.28C248.115 163.28 248.901 163.838 249.373 164.676Z" fill="#269ADB"/>
<path d="M269.04 145.138V167.467H272.973H276.907L277.064 150.999C277.221 132.438 277.693 132.578 285.875 155.186L290.28 167.467H296.259H302.08V145.138V122.809H297.203H292.325L292.797 137.462C293.269 152.116 292.325 156.581 290.28 150.441C289.651 148.627 286.976 141.788 284.459 134.95C279.739 122.948 279.581 122.809 274.389 122.809H269.04V145.138ZM278.637 130.764C276.749 133.555 276.435 132.717 277.851 129.089C278.48 127.833 279.267 127.135 279.581 127.554C280.053 127.833 279.581 129.368 278.637 130.764ZM298.461 137.044C297.989 138.02 297.675 137.323 297.675 135.369C297.675 133.415 297.989 132.717 298.461 133.555C298.776 134.532 298.776 136.206 298.461 137.044ZM291.067 157.14C291.067 158.256 290.28 158.814 289.493 158.396C288.549 157.837 288.235 156.86 288.707 156.163C290.123 154.209 291.067 154.628 291.067 157.14Z" fill="#269ADB"/>
<path d="M345.504 125.6C344.875 127.554 341.885 134.95 338.739 142.207C335.749 149.324 332.288 158.256 331.187 161.884C329.299 168.025 329.456 168.583 331.816 167.885C333.547 167.327 333.389 168.025 330.872 170.397C326.467 174.305 325.365 173.468 327.096 167.746C328.04 164.955 328.04 163.28 327.096 163.28C326.152 163.28 325.995 161.326 326.467 158.675C327.725 152.953 323.163 142.207 320.645 145.277C319.387 146.812 319.229 146.673 320.016 144.719C321.117 141.788 317.341 136.206 315.611 137.881C314.824 138.439 314.509 137.881 314.824 136.764C315.139 135.648 314.037 132.717 312.464 130.484C309.947 126.577 309.789 126.577 310.576 129.787C311.048 131.74 311.52 135.09 311.52 137.183C311.52 139.416 311.992 140.812 312.779 140.532C313.408 140.114 314.037 142.068 314.195 144.998C314.195 147.789 316.24 155.046 318.443 161.187C320.645 167.327 322.533 174.863 322.533 177.794C322.533 183.236 322.533 183.236 325.68 180.724C327.411 179.329 328.669 177.933 328.355 177.654C328.04 177.375 330.243 174.863 333.232 171.932C344.088 161.745 350.853 141.928 348.021 128.391C346.92 122.809 346.605 122.53 345.504 125.6ZM323.635 152.395C323.163 153.511 322.691 153.092 322.691 151.557C322.533 150.022 323.005 149.185 323.477 149.743C323.949 150.162 324.107 151.418 323.635 152.395ZM339.84 157.558C340.784 159.093 340.784 160.628 339.997 161.047C339.211 161.466 338.267 160.349 337.952 158.396C337.008 154.209 337.637 153.93 339.84 157.558Z" fill="#269ADB"/>
<path d="M9.2827 130.066C9.12537 131.88 9.2827 133.834 9.44003 134.671C9.59737 135.369 9.91203 138.858 10.2267 142.347C10.5414 150.86 12.744 159.233 14.16 158.396C14.7894 157.977 15.8907 158.675 16.3627 159.931C16.992 161.187 16.6774 161.745 15.576 161.047C14.4747 160.489 14.632 161.326 15.7334 163.42C19.5094 169.7 20.6107 170.537 23.4427 168.583C25.6454 166.908 25.8027 167.048 23.6 169.42C21.5547 171.653 21.712 172.212 24.544 174.305C26.2747 175.561 29.5787 179.05 31.9387 182.12C36.1867 187.563 36.344 187.563 35.2427 183.516C33.8267 177.794 33.8267 178.352 35.2427 174.724C36.0294 172.77 35.7147 170.676 34.456 169.42C32.8827 167.746 33.04 167.606 35.2427 168.304C36.6587 168.723 37.76 168.862 37.76 168.444C37.76 167.885 38.8614 163.978 40.2774 159.512C45.6267 141.928 48.9307 123.786 45.312 131.182C44.368 133.136 43.7387 135.508 43.896 136.625C44.0534 137.602 43.5814 138.02 42.6374 137.602C40.7494 136.485 37.288 141.788 38.5467 143.742C39.0187 144.58 38.5467 145.138 37.288 145.138C33.984 145.138 30.68 155.884 30.8374 166.35C30.8374 171.653 30.3654 175.84 29.5787 175.84C28.32 175.84 28.1627 175.561 27.5334 170.816C26.5894 162.443 24.544 156.163 20.296 148.208C17.7787 143.463 14.7894 136.625 13.8454 133.276C11.8 126.577 9.59737 125.042 9.2827 130.066ZM20.4534 152.116C20.4534 152.813 19.824 153.511 18.88 153.511C18.0934 153.511 17.3067 152.813 17.3067 152.116C17.3067 151.278 18.0934 150.72 18.88 150.72C19.824 150.72 20.4534 151.278 20.4534 152.116ZM38.704 153.79C39.3334 154.767 39.176 154.907 38.0747 154.348C36.9734 153.79 36.1867 154.069 36.1867 155.046C36.1867 156.023 35.7147 156.442 35.2427 155.884C34.2987 155.186 35.7147 152.116 36.9734 152.116C37.288 152.116 38.0747 152.813 38.704 153.79ZM23.6 162.582C23.6 164.676 20.768 162.722 19.0374 159.372L16.992 155.604L20.296 158.675C22.184 160.349 23.6 162.164 23.6 162.582ZM35.5574 164.257C33.984 165.652 32.568 163.559 33.984 161.745C34.928 160.21 35.2427 160.21 35.872 161.745C36.1867 162.722 36.0294 163.838 35.5574 164.257Z" fill="#269ADB"/>
<path d="M308.373 168.862C307.272 173.049 306.171 181.98 306.171 188.679C306.013 195.378 305.699 200.123 305.384 199.146C304.912 198.308 303.811 201.239 302.867 205.844C301.765 210.45 300.349 215.334 299.72 216.869C298.619 218.963 299.72 218.684 305.384 215.474C309.16 213.241 312.936 210.589 313.565 209.612C314.352 208.636 315.453 208.217 316.397 208.636C317.184 209.194 318.285 208.496 318.757 207.38C319.229 206.124 320.331 205.426 320.96 205.844C321.747 206.263 323.005 205.426 323.949 204.17C324.893 202.774 325.68 202.216 325.68 203.053C325.68 203.751 328.984 201.239 333.075 197.471C341.571 189.516 347.235 179.189 348.651 169.42L349.595 162.582L346.291 168.025C344.088 171.932 343.459 174.026 344.717 175.282C345.819 176.398 345.819 177.236 344.56 177.933C343.616 178.352 343.459 179.468 343.931 180.306C344.56 181.283 344.245 181.422 343.144 180.864C341.885 180.027 341.728 179.189 342.829 178.073C343.773 177.096 344.088 175.84 343.459 175.282C342.829 174.863 338.267 177.933 333.389 182.26C324.579 190.075 324.421 190.214 326.781 193.843C328.984 197.332 328.984 197.332 326.467 194.68C323.949 191.889 323.792 191.889 319.544 196.773C317.027 199.425 315.296 202.356 315.768 203.193C316.083 204.17 314.981 205.705 313.093 206.542C311.363 207.38 310.419 208.775 310.891 209.612C311.52 210.45 311.363 210.729 310.261 210.171C307.901 208.915 308.845 203.053 311.992 200.262C315.925 196.913 316.083 184.772 312.464 169.56L310.576 161.187L308.373 168.862ZM342.2 182.818C342.672 183.655 342.043 183.795 340.784 183.376C337.952 182.399 337.48 181.422 339.683 181.422C340.627 181.422 341.728 181.98 342.2 182.818ZM336.064 189.237C334.648 190.075 334.019 191.191 334.491 191.61C334.963 192.028 334.333 192.168 332.917 192.028C331.659 191.889 329.928 191.191 329.299 190.633C328.669 190.075 329.141 189.796 330.4 190.075C331.659 190.214 332.603 189.796 332.445 189.098C332.288 188.26 333.547 187.563 335.277 187.563C338.109 187.563 338.109 187.842 336.064 189.237Z" fill="#269ADB"/>
<path d="M44.9973 170.956C42.952 180.585 42.48 195.378 44.2107 195.378C44.9973 195.378 45.312 196.076 44.84 196.773C43.5813 198.588 45.4693 204.03 47.2 203.053C49.088 201.937 50.1893 205.844 48.616 208.077C47.3573 209.752 46.8853 209.612 45.4693 207.519C44.6827 206.263 42.6373 205.147 41.2213 205.147C39.0187 205.286 39.176 205.705 42.3227 207.938C44.368 209.473 45.4693 210.729 44.6827 210.729C44.0533 210.729 42.3227 209.752 40.7493 208.496C37.9173 206.124 38.3893 201.658 41.3787 203.332C44.9973 205.286 35.0853 194.401 24.7013 185.051C18.5653 179.468 14.4747 176.677 15.576 178.631C17.3067 181.841 17.3067 181.98 15.104 179.468C13.688 178.073 13.0587 176.259 13.5307 175.7C14.0027 175.003 13.216 173.049 11.8 171.374C9.28265 168.304 9.12532 168.304 9.91199 174.026C11.0133 183.376 20.9253 198.308 25.6453 197.611C26.7467 197.471 28.4773 196.913 29.5787 196.215C30.68 195.657 31.4667 195.657 31.3093 196.355C30.68 199.285 31.624 199.704 34.2987 198.029C36.5013 196.494 36.344 196.634 33.984 199.285C30.8373 202.495 29.5787 203.193 30.3653 201.239C30.68 200.262 29.4213 199.564 26.7467 199.564C25.8027 199.564 27.376 201.379 30.208 203.472C38.8613 209.892 48.7733 215.055 50.6613 214.078C51.6053 213.52 51.92 213.66 51.448 214.497C50.8187 215.334 52.0773 217.009 54.28 218.265C59.3147 221.196 60.2587 221.056 58.2133 217.707C57.2693 216.032 55.696 215.195 54.5947 215.753C53.1787 216.451 53.1787 216.311 54.4373 215.055C55.696 213.939 55.8533 211.566 54.9093 208.217C54.28 205.426 52.864 196.076 51.92 187.702C50.032 170.537 48.9307 166.071 47.2 166.071C46.5707 166.071 45.4693 168.304 44.9973 170.956ZM25.016 190.354C24.544 190.772 23.2853 189.656 22.184 187.981C20.1387 185.051 20.296 185.051 22.9707 187.284C24.544 188.679 25.488 190.075 25.016 190.354ZM31.4667 191.749C31.4667 192.028 30.208 193.145 28.792 194.122C26.2747 195.936 26.1173 195.796 28.1627 193.564C30.208 191.331 31.4667 190.633 31.4667 191.749ZM51.1333 210.729C51.6053 211.566 50.504 212.124 48.4587 212.124C45.6267 212.124 45.312 211.845 47.2 210.729C50.1893 209.054 50.032 209.054 51.1333 210.729Z" fill="#269ADB"/>
<path d="M138.453 182.12C138.453 183.236 139.083 184.213 139.869 184.213C140.656 184.213 143.488 185.748 146.005 187.702C148.523 189.516 151.04 190.633 151.669 190.075C152.299 189.516 152.613 189.935 152.299 191.052C152.141 192.168 153.085 193.424 154.659 193.703C157.648 194.261 166.773 187.423 166.773 184.632C166.773 183.516 169.133 182.818 173.067 182.818C180.304 182.818 182.664 185.19 186.597 196.634C188.328 201.797 190.059 204.309 192.891 205.426C195.723 206.682 196.667 208.077 196.667 211.566C196.667 214.078 197.768 217.009 199.027 218.265C200.285 219.381 201.387 222.312 201.387 224.684C201.387 229.848 205.792 236.268 208.624 235.291C209.883 234.872 210.669 235.012 210.512 235.57C210.04 237.663 212.872 244.222 214.131 244.222C214.917 244.222 215.547 244.92 215.547 245.757C215.547 246.455 214.603 246.734 213.659 246.176C212.557 245.618 212.085 245.618 212.715 246.176C213.187 246.734 212.715 248.828 211.456 250.921C209.725 253.991 208.152 254.689 202.96 254.828C199.499 254.828 197.453 254.41 198.397 253.852C200.443 252.875 199.027 249.804 196.509 249.804C195.565 249.804 195.408 250.363 195.88 251.2C196.352 251.898 195.88 252.177 194.621 251.758C193.363 251.34 191.317 251.898 190.216 253.014C188.485 254.41 179.045 257.34 179.36 256.224C180.461 253.433 183.608 230.685 182.979 229.848C182.664 229.29 181.091 228.871 179.517 228.871C177.315 228.871 176.213 231.523 173.853 242.408C170.707 257.62 169.291 260.969 165.987 260.969C164.885 260.969 163.627 261.388 163.155 261.946C162.84 262.644 162.84 262.085 163.312 260.969C164.571 257.34 164.885 245.618 163.784 246.316C163.155 246.595 162.525 246.036 162.525 244.92C162.525 243.804 163.155 242.827 163.941 242.827C164.571 242.827 165.2 242.129 165.2 241.431C165.2 240.594 164.099 240.036 162.84 240.036C160.008 240.036 158.277 245.757 159.536 250.502C160.48 253.712 160.008 253.991 155.76 253.991C153.085 253.991 151.197 254.549 151.827 255.247C152.299 255.945 151.984 257.061 151.04 257.48C150.096 258.038 149.624 257.62 149.781 256.782C150.096 255.805 148.523 253.852 146.32 252.456C142.701 249.944 141.757 249.944 137.037 251.619C134.205 252.735 132.003 254.131 131.845 254.828C131.845 255.526 131.216 257.061 130.587 258.178C129.485 259.713 128.699 259.852 127.44 258.736C126.181 257.62 126.339 256.643 128.069 254.968C131.216 252.177 131.373 250.642 128.384 251.619C126.811 252.177 126.339 251.758 126.968 250.363C128.069 247.572 126.181 243.804 124.136 245.06C122.877 245.618 123.035 246.316 124.451 247.153C127.755 248.967 123.349 248.828 117.056 246.734C112.493 245.339 112.179 244.78 113.28 241.152C114.067 239.059 114.224 237.244 113.595 237.244C113.123 237.244 113.437 236.547 114.539 235.57C117.213 233.197 117.056 224.684 114.381 224.684C111.549 224.684 108.403 230.964 109.661 234.035C110.291 235.43 109.976 235.988 109.032 235.43C108.088 234.872 106.987 235.291 106.515 236.128C106.043 237.244 103.211 235.709 98.6481 231.802C94.7147 228.452 90.9387 225.94 90.3094 226.22C88.2641 227.057 87.6347 220.358 89.5227 218.684C92.1974 216.311 91.5681 213.52 88.2641 213.52C86.5334 213.52 84.3307 215.334 82.7574 218.125C81.4987 220.777 79.2961 222.87 78.0374 222.87C76.7787 222.87 75.9921 222.452 76.3067 221.893C77.7227 219.94 73.6321 210.589 70.3281 207.659C68.4401 206.124 67.8107 205.147 68.7547 205.705C70.1707 206.403 70.4854 205.984 69.8561 204.588C69.3841 203.332 68.2827 202.635 67.6534 203.053C67.0241 203.472 65.4507 202.635 64.3494 201.379C62.4614 199.425 62.4614 199.146 64.3494 200.262C65.7654 200.96 65.6081 199.983 63.5627 197.052C61.9894 194.68 60.5734 192.866 60.4161 193.005C59.9441 193.424 62.6187 206.821 64.6641 215.195C65.7654 219.381 67.0241 221.475 68.1254 220.916C69.0694 220.358 69.3841 220.916 68.7547 222.452C67.4961 225.382 73.0027 230.546 76.3067 229.429C77.8801 228.871 78.6667 229.429 78.6667 231.104C78.6667 232.639 78.0374 233.197 77.4081 232.36C76.7787 231.523 75.2054 230.825 73.9467 230.546C72.2161 230.127 72.3734 230.825 74.5761 232.918C76.6214 234.872 78.1947 235.43 79.4534 234.453C80.7121 233.476 81.3414 233.756 81.3414 235.151C81.3414 236.268 80.5547 236.686 79.7681 236.268C78.6667 235.709 78.5094 236.407 79.2961 238.082C79.9254 239.477 79.9254 240.175 79.2961 239.617C78.6667 239.059 77.0934 239.477 75.6774 240.454C73.4747 241.85 73.4747 241.85 75.0481 239.896C76.7787 238.082 75.9921 237.105 70.3281 233.476C66.7094 231.244 56.6401 226.22 47.9867 222.452C39.3334 218.684 29.8934 213.52 27.2187 210.868C20.7681 205.007 20.6107 206.403 26.5894 214.776C32.4107 222.87 41.6934 230.825 43.7387 229.708C44.6827 229.29 45.9414 229.569 46.5707 230.406C47.3574 231.523 46.8854 231.802 45.4694 231.104C44.2107 230.546 44.9974 231.383 47.0427 233.058C49.0881 234.593 51.9201 235.57 53.0214 235.291C54.2801 234.872 54.9094 235.012 54.4374 235.709C53.4934 236.965 55.6961 238.082 63.4054 240.036C65.7654 240.733 67.6534 240.733 67.6534 240.036C67.6534 239.477 68.5974 238.64 69.8561 238.221C71.1147 237.803 71.9014 238.361 71.7441 239.756C71.5867 241.292 72.8454 242.129 75.0481 242.129C78.6667 242.268 79.1387 243.106 77.2507 247.013C76.1494 249.246 66.0801 250.363 66.0801 248.269C66.0801 247.432 65.1361 247.013 64.1921 247.292C63.0907 247.432 59.0001 246.176 55.0667 244.362L47.9867 241.012L53.9654 246.176C57.2694 248.967 63.0907 252.735 66.8667 254.689C73.0027 258.038 77.4081 263.76 73.6321 263.76C72.6881 263.76 72.3734 264.737 73.0027 265.853C73.4747 266.97 73.1601 267.947 72.3734 267.947C70.4854 267.947 64.1921 283.298 65.1361 285.67C65.6081 286.787 65.4507 287.205 64.5067 286.787C62.9334 285.949 60.7307 294.183 61.6747 298.23C61.9894 299.626 60.8881 301.998 59.4721 303.533C57.8987 304.929 56.9547 307.022 57.2694 307.86C57.7414 308.836 56.7974 310.372 55.3814 311.488C52.8641 313.163 52.8641 313.023 55.0667 310.511L57.4267 307.72L53.6507 310.511L50.0321 313.302L69.3841 313.721C80.0827 313.86 89.5227 313.86 90.6241 313.442C92.5121 312.884 96.2881 298.649 96.4454 291.252C96.6027 289.159 97.2321 287.484 97.8614 287.484C98.4907 287.484 99.1201 286.508 99.1201 285.252C99.1201 283.996 98.3334 283.577 97.2321 284.135C95.6587 284.972 95.6587 284.693 97.2321 283.019C98.3334 281.763 98.6481 280.507 98.0187 280.228C97.3894 279.809 97.5467 279.809 98.6481 279.948C99.5921 280.228 101.323 279.39 102.267 278.274C104.469 276.041 119.573 275.483 119.573 277.576C119.573 278.274 118.944 280.507 118.157 282.46C117.213 284.275 116.427 289.717 116.269 294.462C116.112 299.068 115.325 303.254 114.539 303.673C113.909 304.092 113.28 306.604 113.28 309.255V314H134.52H155.76L156.075 300.324C156.232 292.927 156.389 285.67 156.389 284.414C156.389 283.158 157.019 282.46 157.805 282.879C158.749 283.437 159.064 282.879 158.435 281.623C157.963 280.367 158.435 277.995 159.536 276.18C162.525 270.877 163.784 267.807 162.368 268.505C161.581 268.924 160.952 268.365 160.952 267.249C160.952 266.132 161.581 265.574 162.368 265.993C163.155 266.412 165.043 265.853 166.616 264.597C169.291 262.364 169.448 263.062 170.392 277.157C171.179 286.647 170.864 292.648 169.92 293.764C168.976 294.741 167.875 299.626 167.245 304.789L166.301 314H188.485H210.512L211.456 307.441C211.928 303.673 212.715 297.114 213.344 292.788C214.131 286.368 214.917 284.693 217.12 284.693C221.368 284.693 224.515 280.786 221.84 278.692C220.267 277.436 220.109 277.436 220.896 278.692C222.155 280.646 216.176 283.996 214.917 282.042C213.659 280.367 215.547 279.251 218.064 280.088C219.323 280.507 220.267 280.367 220.109 279.669C219.952 278.972 219.952 276.041 220.109 273.25C220.267 266.551 224.2 267.388 227.661 275.064C228.92 277.995 230.651 280.088 231.595 279.669C232.381 279.251 232.853 279.669 232.696 280.646C232.067 283.577 234.584 289.438 235.843 287.764C236.315 287.066 236.787 289.717 236.787 293.764C236.787 297.812 236.315 300.882 235.685 300.463C234.899 300.184 234.427 301.58 234.427 303.812C234.427 305.906 233.955 309.116 233.483 310.79C232.539 314 232.539 314 253.149 314C266.523 314 273.76 313.442 273.76 312.465C273.76 311.767 272.973 311.488 271.872 312.046C270.928 312.604 270.613 312.465 271.085 311.628C271.715 310.79 270.613 307.162 268.883 303.533C266.68 299.068 265.893 295.439 266.523 292.508C266.995 290.136 267.781 286.228 268.411 283.996C269.04 280.646 268.883 280.228 267.467 281.902C265.893 283.577 265.736 283.298 266.523 280.507C266.995 278.553 267.467 275.622 267.467 273.948C267.467 272.133 268.725 270.598 270.613 270.04C272.344 269.621 273.76 268.505 273.76 267.807C273.76 265.853 269.355 266.272 268.568 268.226C268.096 269.203 267.624 268.226 267.624 266.132C267.467 263.9 266.837 262.504 266.051 262.923C265.264 263.481 264.949 262.644 265.421 261.108C265.893 259.294 267.152 258.736 269.197 259.155C270.771 259.573 273.445 259.434 274.861 258.876C276.435 258.178 278.637 257.899 279.896 258.038C280.997 258.178 281.469 257.759 280.997 257.061C280.525 256.224 281.312 255.945 283.2 256.364C284.931 256.782 286.347 256.364 286.347 255.526C286.347 254.689 287.605 253.991 289.336 253.991C290.909 253.991 293.899 252.456 296.101 250.642C298.304 248.967 301.136 247.013 302.552 246.595C303.811 246.176 306.328 243.804 308.373 241.152L311.835 236.547L307.429 240.733C305.069 242.966 302.709 244.78 302.237 244.641C301.765 244.501 298.619 244.92 295.315 245.757C291.067 246.734 289.493 247.851 290.123 249.107C290.595 250.363 290.123 250.781 288.707 250.223C287.448 249.804 286.661 249.107 287.133 248.548C288.077 247.013 270.141 248.548 267.939 250.084C266.837 250.921 265.736 250.781 265.107 249.804C263.376 247.432 262.589 238.221 263.848 237.384C265.736 236.128 269.355 230.127 268.568 229.429C268.096 229.011 266.68 229.708 265.264 230.964C263.848 232.22 262.747 232.779 262.747 232.081C262.747 230.685 268.568 226.08 269.355 226.778C269.669 227.057 271.085 225.382 272.659 223.149L275.333 218.963L268.883 223.847C262.117 228.871 259.6 229.15 259.6 224.824C259.6 222.033 256.611 219.102 253.779 219.102C250.789 219.102 249.845 224.684 251.576 231.662C252.835 236.686 252.677 238.082 250.789 239.059C249.531 239.756 249.059 240.873 249.531 241.71C250.16 242.548 250.003 242.827 249.059 242.408C248.272 241.85 245.125 243.106 242.293 244.92C239.304 246.874 236.472 247.99 235.843 247.432C235.056 246.734 234.427 242.827 234.112 238.64C233.64 231.244 233.483 230.964 229.392 230.964C224.2 231.104 223.728 228.871 227.504 220.498C229.549 215.892 229.707 213.799 228.291 208.636C225.773 199.844 226.088 198.169 230.179 198.169C235.685 198.029 238.675 195.099 240.248 187.981L241.979 181.422H212.085C188.643 181.422 182.507 181.841 183.451 183.097C184.395 184.492 184.237 184.492 182.349 183.236C180.933 182.26 174.64 181.562 166.459 181.562C158.907 181.701 151.827 181.143 150.883 180.585C149.624 180.027 149.467 180.166 150.096 181.283C151.197 182.818 147.579 182.539 140.499 180.585C139.397 180.306 138.453 181.004 138.453 182.12ZM231.752 192.168C230.651 192.447 228.763 192.447 227.819 192.168C226.717 191.749 227.504 191.47 229.707 191.47C231.909 191.47 232.696 191.749 231.752 192.168ZM70.0134 211.008C70.8001 210.45 70.8001 210.868 70.1707 211.845C69.2267 213.241 68.4401 213.241 66.7094 211.985C65.4507 211.148 64.5067 210.031 64.5067 209.752C64.5067 209.333 65.4507 209.752 66.5521 210.589C67.8107 211.427 69.3841 211.566 70.0134 211.008ZM86.8481 217.986C85.7467 218.963 84.9601 219.102 84.9601 218.265C84.9601 216.311 86.8481 214.636 87.9494 215.613C88.2641 216.032 87.7921 217.148 86.8481 217.986ZM36.1867 220.498C36.1867 223.01 33.1974 222.033 31.4667 218.963C29.7361 216.311 29.8934 216.172 32.8827 217.707C34.7707 218.544 36.1867 219.8 36.1867 220.498ZM49.7174 226.778C50.0321 228.313 49.4027 228.452 47.0427 227.057C44.9974 225.94 44.6827 225.243 46.0987 224.405C48.1441 223.289 49.2454 223.987 49.7174 226.778ZM75.5201 225.243C75.5201 225.522 74.4187 226.22 73.0027 226.638C71.7441 227.057 71.1147 226.917 71.5867 226.08C72.5307 224.684 75.5201 224.126 75.5201 225.243ZM89.6801 230.825C89.6801 231.941 90.7814 233.476 92.0401 234.453C93.9281 235.849 94.5574 235.709 95.3441 233.895C95.8161 232.639 97.0747 232.081 97.8614 232.5C98.9627 233.058 98.4907 233.895 96.9174 234.732C93.2987 236.547 93.7707 238.64 99.2774 243.664C104.312 248.269 104.312 251.2 99.4347 251.2C96.4454 251.2 86.8481 248.269 83.7014 246.595C80.2401 244.641 83.2294 242.966 88.1067 244.222C93.7707 245.618 93.9281 245.478 89.3654 241.989C87.4774 240.594 86.5334 240.175 87.1627 241.012C88.7361 243.664 87.3201 243.245 84.8027 240.454C83.2294 238.919 83.2294 238.5 84.4881 239.198C85.9041 239.896 86.3761 239.338 86.2187 237.663C85.7467 231.941 86.6907 227.336 88.1067 228.173C89.0507 228.592 89.6801 229.848 89.6801 230.825ZM55.0667 231.662C57.1121 232.779 57.1121 233.058 54.7521 233.058C53.3361 233.058 51.6054 232.36 51.1334 231.662C49.8747 229.848 51.9201 229.848 55.0667 231.662ZM224.987 242.268C224.987 248.409 225.616 251.2 227.032 251.2C228.448 251.2 228.291 251.619 226.717 252.456C225.459 253.154 224.987 254.689 225.773 256.643C226.717 259.434 226.56 259.573 223.571 257.899C221.211 256.643 220.267 254.549 220.109 250.502C219.952 247.432 219.637 242.827 219.323 240.175C218.693 235.291 221.053 231.104 223.571 232.5C224.357 232.918 224.987 237.244 224.987 242.268ZM60.5734 235.849C60.1014 236.547 58.8427 237.244 58.0561 237.244C57.1121 237.244 56.9547 236.547 57.4267 235.849C57.8987 235.012 59.1574 234.453 59.9441 234.453C60.8881 234.453 61.0454 235.012 60.5734 235.849ZM178.888 238.919C178.416 240.036 177.944 239.617 177.944 238.082C177.787 236.547 178.259 235.709 178.731 236.268C179.203 236.686 179.36 237.942 178.888 238.919ZM102.896 239.477C103.368 240.594 103.211 241.152 102.267 240.733C101.323 240.315 100.693 239.338 100.693 238.5C100.693 236.547 101.795 236.965 102.896 239.477ZM259.128 241.71C258.656 242.827 258.184 242.408 258.184 240.873C258.027 239.338 258.499 238.5 258.971 239.059C259.443 239.477 259.6 240.733 259.128 241.71ZM254.093 249.665C251.576 251.619 241.035 252.875 239.933 251.2C239.304 250.363 240.091 250.223 241.664 250.781C243.237 251.2 244.024 251.06 243.552 250.363C242.923 249.665 244.496 248.967 246.699 248.828C249.059 248.828 251.104 247.99 251.419 247.013C251.891 245.897 252.52 245.757 253.779 246.874C254.88 247.851 254.88 248.828 254.093 249.665ZM118 252.875C118 255.108 114.853 253.852 113.28 251.2C111.707 248.548 111.707 248.409 114.696 250.084C116.584 251.06 118 252.316 118 252.875ZM255.981 253.433C255.509 253.852 254.093 253.991 252.992 253.572C251.733 253.154 252.205 252.735 253.936 252.735C255.667 252.596 256.611 253.014 255.981 253.433ZM144.747 257.34C144.747 257.62 143.331 257.62 141.6 257.201C139.869 256.782 138.453 255.945 138.453 255.108C138.453 254.41 139.869 254.549 141.6 255.387C143.331 256.224 144.747 257.061 144.747 257.34ZM194.307 255.387C194.779 256.224 194.149 256.364 192.891 255.945C190.059 254.968 189.587 253.991 191.789 253.991C192.733 253.991 193.835 254.549 194.307 255.387ZM109.819 258.876C109.347 259.294 108.403 258.596 107.931 257.201C106.987 255.247 107.144 255.108 108.717 256.364C109.819 257.34 110.291 258.457 109.819 258.876ZM119.573 260.829C119.573 264.039 118.629 265.016 113.752 266.272C109.504 267.388 108.56 267.388 109.819 266.272C110.92 265.295 111.707 263.202 111.707 261.388C111.707 259.434 112.651 258.178 114.224 258.178C115.483 258.178 116.112 257.62 115.64 256.782C115.168 255.945 115.797 255.805 117.056 256.224C118.472 256.782 119.573 258.736 119.573 260.829ZM157.333 260.271C157.333 265.016 155.76 267.947 153.243 267.947C151.984 267.947 151.04 268.644 151.04 269.482C151.04 270.18 150.411 270.598 149.624 270.18C147.579 269.063 149.309 263.62 152.771 260.132C154.501 258.596 155.288 256.782 154.659 256.084C153.872 255.526 154.344 255.387 155.445 255.945C156.389 256.503 157.333 258.457 157.333 260.271ZM177.787 256.922C177.787 257.759 178.731 258.178 179.989 257.759C183.136 256.643 186.597 260.69 187.856 266.83C188.8 271.436 188.485 272.133 186.125 272.133C184.08 272.133 182.192 270.04 180.147 265.295C178.573 261.388 176.685 258.596 176.213 258.876C175.584 259.155 175.112 258.596 175.112 257.48C175.112 256.364 175.741 255.387 176.528 255.387C177.157 255.387 177.787 256.084 177.787 256.922ZM203.747 256.643C204.219 257.34 204.061 258.317 203.275 258.736C202.488 259.155 201.859 258.596 201.859 257.48C201.859 255.108 202.331 254.828 203.747 256.643ZM243.709 257.62C245.125 258.736 238.989 267.528 236.787 267.528C235.213 267.528 234.584 266.691 235.213 265.574C235.685 264.458 236 261.667 236 259.434C236 255.666 236.472 255.247 239.619 256.224C241.507 256.643 243.395 257.34 243.709 257.62ZM249.373 258.178C249.845 258.876 249.688 259.573 248.744 259.573C247.957 259.573 246.699 258.876 246.227 258.178C245.755 257.34 245.912 256.782 246.856 256.782C247.643 256.782 248.901 257.34 249.373 258.178ZM98.8054 260.411C101.323 259.015 102.739 262.225 100.693 264.458C98.0187 267.249 94.8721 267.109 94.0854 264.039C92.9841 260.55 94.4001 257.34 95.9734 259.573C96.6027 260.55 97.8614 260.969 98.8054 260.411ZM210.512 265.714C210.827 268.784 210.197 271.854 209.096 272.692C207.68 273.808 207.523 273.808 208.152 272.692C208.781 271.715 208.152 270.738 206.893 270.18C205.477 269.761 204.533 267.528 204.533 264.458C204.533 260.411 205.005 259.434 207.365 259.852C209.253 260.132 210.197 261.946 210.512 265.714ZM90.4667 262.364C90.9387 263.062 90.6241 263.76 89.8374 263.76C88.8934 263.76 88.1067 263.062 88.1067 262.364C88.1067 261.527 88.4214 260.969 88.7361 260.969C89.2081 260.969 89.9947 261.527 90.4667 262.364ZM133.733 265.156C133.733 265.853 132.947 266.551 132.003 266.551C131.216 266.551 130.901 265.853 131.373 265.156C131.845 264.318 132.632 263.76 133.104 263.76C133.419 263.76 133.733 264.318 133.733 265.156ZM92.3547 267.388C91.8827 267.807 90.4667 267.947 89.3654 267.528C88.1067 267.109 88.5787 266.691 90.3094 266.691C92.0401 266.551 92.9841 266.97 92.3547 267.388ZM265.421 272.412C264.949 273.529 264.477 273.11 264.477 271.575C264.32 270.04 264.792 269.203 265.264 269.761C265.736 270.18 265.893 271.436 265.421 272.412ZM156.861 273.808C156.389 274.924 155.917 274.506 155.917 272.971C155.76 271.436 156.232 270.598 156.704 271.156C157.176 271.575 157.333 272.831 156.861 273.808ZM216.963 273.668C217.12 272.552 217.592 271.994 218.064 272.552C219.637 273.948 217.12 276.18 214.76 275.483C213.501 275.064 213.029 273.808 213.501 272.412C214.445 270.598 214.76 270.598 215.704 272.971C216.491 274.506 216.963 274.785 216.963 273.668ZM235.528 273.808C235.056 274.924 234.584 274.506 234.584 272.971C234.427 271.436 234.899 270.598 235.371 271.156C235.843 271.575 236 272.831 235.528 273.808ZM181.72 277.716C182.192 278.553 181.563 278.692 180.304 278.274C177.472 277.297 177 276.32 179.203 276.32C180.147 276.32 181.248 276.878 181.72 277.716ZM122.248 282.181C121.776 283.298 121.304 282.879 121.304 281.344C121.147 279.809 121.619 278.972 122.091 279.53C122.563 279.948 122.72 281.204 122.248 282.181ZM174.168 282.879C174.325 286.228 174.168 286.368 173.224 283.996C172.123 281.623 172.28 279.111 173.539 279.111C173.853 279.111 174.011 280.786 174.168 282.879ZM71.9014 286.368C71.4294 287.484 70.9574 287.066 70.9574 285.531C70.8001 283.996 71.2721 283.158 71.7441 283.716C72.2161 284.135 72.3734 285.391 71.9014 286.368ZM152.141 290.555C151.669 291.671 151.197 291.252 151.197 289.717C151.04 288.182 151.512 287.345 151.984 287.903C152.456 288.322 152.613 289.578 152.141 290.555ZM207.208 293.346C206.736 294.462 206.264 294.044 206.264 292.508C206.107 290.973 206.579 290.136 207.051 290.694C207.523 291.113 207.68 292.369 207.208 293.346ZM92.3547 300.324C91.8827 301.44 91.4107 301.021 91.4107 299.486C91.2534 297.951 91.7254 297.114 92.1974 297.672C92.6694 298.091 92.8267 299.347 92.3547 300.324ZM173.853 301.58C175.584 303.812 174.011 304.231 171.808 301.998C170.707 300.882 170.549 300.044 171.336 300.044C172.123 300.044 173.381 300.742 173.853 301.58ZM205.635 304.51C205.163 305.627 204.691 305.208 204.691 303.673C204.533 302.138 205.005 301.3 205.477 301.859C205.949 302.277 206.107 303.533 205.635 304.51ZM267.152 304.929C266.68 305.348 265.736 304.65 265.264 303.254C264.32 301.3 264.477 301.161 266.051 302.417C267.152 303.394 267.624 304.51 267.152 304.929Z" fill="#269ADB"/>
<path d="M70.6427 183.795C71.4294 185.19 73.3174 187.563 74.7334 189.098C77.0934 191.889 77.2507 191.889 76.7787 188.4C76.3067 185.469 76.9361 184.911 80.5547 184.911C83.8587 185.051 84.3307 184.632 83.0721 183.236C82.1281 182.26 78.6667 181.422 75.2054 181.422C69.8561 181.422 69.2267 181.701 70.6427 183.795Z" fill="#269ADB"/>
<path d="M88.7361 191.61C91.2534 194.401 93.4561 196.773 93.9281 196.773C95.0294 196.773 88.2641 188.679 86.2187 187.563C85.1174 187.004 86.3761 188.819 88.7361 191.61Z" fill="#269ADB"/>
<path d="M294.056 194.959C287.605 203.891 286.189 206.542 287.291 208.217C287.92 209.194 287.763 209.333 286.661 208.775C285.56 208.217 283.829 211.008 281.784 216.59C279.109 224.266 278.952 225.522 280.997 227.057C282.571 228.034 282.885 228.871 281.784 229.569C280.84 229.988 280.053 229.708 280.053 229.011C280.053 228.173 279.424 227.476 278.795 227.476C277.221 227.476 271.243 238.78 271.872 240.454C272.029 241.152 271.557 241.292 270.771 240.873C269.984 240.454 268.411 241.152 267.309 242.408C265.421 244.501 265.421 244.641 268.253 243.664C269.827 243.106 274.389 242.268 278.008 241.85C281.784 241.431 285.245 240.454 285.875 239.617C287.291 237.663 282.885 235.849 280.525 237.524C275.963 240.873 276.749 237.105 281.469 232.918C288.077 227.057 292.011 220.079 294.213 209.612C295.787 202.495 295.787 200.541 294.056 198.588C292.797 197.332 292.64 196.634 293.741 197.192C294.843 197.75 296.101 196.494 297.203 193.982C299.248 188.4 298.619 188.679 294.056 194.959Z" fill="#269ADB"/>
<path d="M78.6667 195.238C79.4534 196.773 81.0267 198.448 81.9707 199.006C82.9147 199.425 82.4427 198.308 81.0267 196.215C77.88 192.028 76.3067 191.331 78.6667 195.238Z" fill="#269ADB"/>
<path d="M328.669 209.612C324.736 213.241 321.904 216.73 322.376 217.148C322.848 217.707 322.533 217.707 321.432 217.288C318.6 215.753 314.824 217.707 315.768 220.219C316.24 221.893 316.083 222.033 315.139 220.916C314.037 219.66 311.992 219.94 306.485 222.312C302.552 223.987 299.248 225.94 299.248 226.499C299.248 227.196 298.619 228.173 297.989 228.592C297.36 229.15 297.36 228.732 297.989 227.755C299.563 225.522 297.989 225.661 293.427 228.313C291.224 229.569 289.965 231.244 290.595 232.081C291.067 232.779 290.909 233.058 289.965 232.639C289.021 232.081 287.133 232.639 285.56 233.616C282.885 235.291 282.885 235.43 285.403 236.268C287.133 236.965 287.763 236.686 286.976 235.57C286.347 234.593 286.504 234.453 287.605 235.012C288.549 235.57 289.021 236.826 288.392 237.942C285.717 244.362 307.272 235.151 320.488 224.266C328.512 217.567 338.581 204.309 336.536 203.332C336.221 203.193 332.603 205.984 328.669 209.612ZM316.24 224.684C316.24 225.382 315.925 226.08 315.611 226.08C315.139 226.08 314.352 225.382 313.88 224.684C313.408 223.847 313.723 223.289 314.509 223.289C315.453 223.289 316.24 223.847 316.24 224.684ZM297.675 231.244C296.731 231.523 296.259 232.639 296.731 233.337C297.36 234.314 297.045 234.453 295.944 233.895C293.899 232.639 295.157 230.267 297.832 230.406C299.248 230.406 299.091 230.685 297.675 231.244Z" fill="#269ADB"/>
<path d="M276.907 265.156C275.648 265.853 275.019 266.83 275.491 267.249C276.12 267.668 277.379 267.109 278.48 265.853C280.683 263.481 280.211 263.202 276.907 265.156Z" fill="#269ADB"/>
</svg>
