<?xml version="1.0" standalone="no"?>
<!DOCTYPE svg PUBLIC "-//W3C//DTD SVG 20010904//EN"
 "http://www.w3.org/TR/2001/REC-SVG-20010904/DTD/svg10.dtd">
<svg version="1.0" xmlns="http://www.w3.org/2000/svg"
 width="363.000000pt" height="448.000000pt" viewBox="0 0 363.000000 448.000000"
 preserveAspectRatio="xMidYMid meet">
<metadata>
Created by potrace 1.16, written by Peter Selinger 2001-2019
</metadata>
<g transform="translate(0.000000,448.000000) scale(0.100000,-0.100000)"
fill="#000000" stroke="none">
<path d="M1497 3561 c-82 -30 -111 -50 -133 -93 -12 -23 -92 -88 -109 -88 -3
0 2 11 10 24 12 18 54 136 55 153 0 8 -79 -47 -119 -83 -58 -52 -84 -102 -79
-153 3 -32 -2 -41 -49 -84 l-52 -49 15 48 c15 52 19 184 5 184 -15 0 -81 -87
-106 -142 -35 -75 -32 -196 4 -174 18 12 13 1 -34 -71 l-45 -68 0 45 c0 25 -5
61 -10 80 -5 19 -15 56 -21 83 -7 26 -15 47 -18 47 -12 0 -63 -194 -64 -239 0
-30 8 -65 25 -98 l25 -52 -22 -66 -22 -65 -20 59 c-11 32 -38 85 -59 117 l-39
59 -7 -85 c-9 -112 6 -205 39 -248 14 -18 31 -36 39 -39 15 -5 18 -80 5 -137
-6 -29 -6 -29 -44 32 -33 54 -121 141 -131 131 -2 -2 4 -44 15 -94 25 -118 63
-190 125 -237 39 -30 50 -45 55 -75 3 -21 9 -54 14 -73 l8 -35 -40 36 c-32 29
-116 87 -192 133 -25 16 100 -213 137 -250 20 -20 63 -49 95 -63 54 -25 62
-33 98 -100 l39 -73 -36 22 c-57 36 -105 57 -164 73 -30 8 -64 18 -75 23 -27
11 65 -105 132 -166 57 -52 127 -82 198 -84 37 -1 48 -8 111 -70 38 -38 60
-66 49 -61 -63 25 -99 34 -185 45 -52 6 -108 10 -125 8 -29 -3 -27 -5 50 -58
131 -89 245 -119 345 -89 34 10 42 8 119 -34 l83 -45 -94 -4 c-51 -3 -136 -13
-188 -23 l-95 -19 60 -18 c140 -42 213 -52 281 -41 42 8 77 21 100 38 28 21
42 26 67 21 18 -3 49 -9 70 -12 20 -4 37 -9 37 -13 0 -3 -26 -17 -58 -31 -69
-30 -224 -111 -220 -115 2 -2 47 0 100 5 131 11 230 43 281 92 55 52 101 53
162 3 67 -55 151 -85 273 -95 93 -8 140 -5 106 7 -7 2 -52 24 -100 50 -49 25
-111 53 -139 63 -55 19 -53 21 40 44 57 15 60 14 81 -5 38 -36 132 -62 204
-56 80 6 250 58 223 68 -48 17 -232 41 -298 37 l-73 -3 101 52 c55 29 102 53
104 53 3 0 11 -7 19 -15 22 -22 132 -20 200 4 54 19 214 119 214 134 0 9 -27
9 -135 -3 -102 -12 -144 -23 -198 -52 -32 -17 -25 -7 45 62 l83 82 60 1 c58 2
127 28 159 60 7 7 28 26 48 43 19 17 49 51 66 77 18 25 40 51 50 56 27 16 5
13 -72 -10 -79 -23 -131 -48 -191 -89 l-41 -28 45 88 c25 49 49 86 53 84 16
-10 115 44 151 81 35 36 144 232 134 241 -7 7 -157 -94 -201 -135 -37 -34 -38
-35 -33 -11 3 14 10 50 17 81 9 49 15 59 41 69 37 16 87 72 111 127 19 43 62
222 55 229 -6 6 -114 -107 -142 -148 -14 -21 -30 -48 -35 -60 -7 -20 -9 -17
-9 17 -1 22 -4 63 -7 90 -5 47 -4 51 24 69 39 25 57 58 71 126 15 70 4 245
-13 230 -24 -19 -95 -168 -102 -211 l-7 -44 -17 61 c-10 33 -23 70 -29 82 -15
27 -14 53 1 49 20 -3 53 73 53 123 0 50 -53 232 -66 225 -18 -12 -40 -110 -41
-185 l-1 -80 -59 90 c-32 49 -94 127 -138 173 -62 66 -78 88 -73 105 11 43 -7
90 -54 142 -47 52 -120 106 -130 96 -11 -11 26 -118 53 -154 l28 -35 -62 33
c-37 21 -63 42 -66 55 -14 54 -69 97 -156 120 -25 7 -53 16 -62 20 -32 13 -19
-11 42 -78 43 -46 74 -71 108 -83 26 -10 65 -29 86 -43 l40 -26 -65 -6 c-72
-7 -174 -38 -162 -49 13 -13 225 -30 279 -24 47 6 53 4 85 -25 25 -24 29 -31
14 -27 -45 11 -188 9 -181 -2 11 -18 225 -102 258 -102 38 0 55 -11 86 -57 29
-42 28 -44 -15 -22 -46 24 -139 52 -155 47 -14 -5 148 -136 225 -182 51 -30
65 -44 81 -81 10 -25 16 -48 13 -51 -2 -3 -20 9 -38 26 -36 32 -104 74 -141
86 -18 5 -15 -2 19 -42 22 -27 49 -67 61 -89 19 -38 97 -120 134 -141 11 -6
20 -32 27 -74 16 -95 14 -112 -8 -64 -18 39 -135 174 -151 174 -10 0 53 -187
82 -243 11 -23 34 -58 49 -78 30 -38 36 -85 20 -154 l-8 -30 -11 40 c-6 22
-33 76 -59 120 l-48 80 -3 -64 c-5 -105 14 -223 45 -283 15 -29 26 -60 24 -68
-3 -16 -60 -140 -64 -140 -1 0 -1 18 1 40 5 49 -14 161 -35 209 l-15 36 -24
-105 c-34 -151 -39 -194 -24 -255 l13 -53 -39 -46 c-21 -25 -39 -44 -40 -43
-1 1 1 31 4 67 4 36 5 90 2 120 l-5 55 -34 -65 c-18 -36 -41 -76 -50 -90 -30
-44 -42 -82 -48 -148 -6 -62 -7 -65 -52 -98 -25 -18 -49 -34 -54 -34 -4 0 2
18 13 40 24 48 54 159 45 168 -3 4 -46 -35 -95 -86 -62 -65 -95 -109 -111
-147 -23 -55 -36 -65 -103 -81 -28 -7 -28 -6 19 51 48 59 72 101 63 110 -6 6
-164 -59 -186 -77 -35 -28 -73 -74 -78 -95 -6 -21 -12 -23 -74 -23 l-68 0 -26
44 c-14 25 -40 55 -57 67 -34 24 -190 91 -197 84 -8 -8 46 -90 88 -132 23 -24
40 -43 38 -43 -14 0 -115 34 -124 41 -7 6 -15 25 -18 43 -4 19 -22 51 -40 73
-72 80 -176 186 -176 177 1 -33 34 -142 55 -180 13 -24 22 -44 19 -44 -3 0
-29 16 -59 35 l-55 35 0 52 c0 62 -19 114 -77 218 -67 118 -64 119 -60 -22 2
-71 3 -128 1 -128 -1 0 -20 22 -42 49 l-39 50 16 60 c15 58 15 64 -14 210 -26
130 -31 147 -41 128 -23 -44 -47 -179 -41 -236 l5 -56 -41 84 c-34 71 -39 86
-28 103 51 81 71 174 71 327 l0 64 -18 -24 c-40 -52 -82 -139 -95 -195 l-14
-59 -11 66 c-15 82 -15 116 -1 125 30 18 99 148 128 239 17 54 31 104 31 109
0 12 -84 -68 -113 -108 -11 -16 -31 -54 -44 -85 l-24 -56 6 65 c11 128 13 132
66 172 26 21 70 67 96 103 26 36 63 86 81 111 18 25 32 48 30 49 -2 2 -21 -7
-43 -20 -22 -13 -56 -33 -77 -44 -20 -11 -50 -37 -68 -58 -27 -33 -31 -34 -25
-13 24 82 46 115 96 138 79 38 271 192 238 192 -29 0 -124 -32 -166 -56 -24
-14 -43 -22 -43 -19 0 3 15 26 33 50 24 34 40 46 67 50 76 12 119 25 205 66
89 42 89 42 57 49 -34 8 -160 -2 -183 -14 -8 -4 4 8 26 28 39 35 41 35 120 33
93 -2 265 13 265 23 0 13 -112 43 -179 49 l-65 6 35 26 c19 15 54 30 79 34 38
6 56 19 117 80 66 65 87 96 66 94 -5 0 -43 -13 -86 -28z"/>
<path d="M2580 3389 c1 -139 34 -233 97 -275 35 -22 43 -7 39 76 -2 65 -11 88
-54 145 -12 16 -26 35 -30 40 -4 6 -17 23 -30 39 l-22 29 0 -54z"/>
<path d="M1354 2942 c-32 -21 -78 -49 -101 -62 -46 -25 -47 -28 -34 -48 9 -15
17 -12 114 48 l47 29 0 -464 0 -464 -57 -6 c-32 -3 -65 -7 -73 -8 -8 -1 -16
-10 -18 -20 -3 -16 12 -17 197 -17 189 0 201 1 201 19 0 15 -10 19 -52 24 -28
4 -55 12 -60 19 -4 7 -8 232 -8 501 l0 487 -48 0 c-40 0 -60 -7 -108 -38z"/>
<path d="M2095 2968 c-2 -7 -16 -58 -29 -113 -56 -221 -144 -392 -288 -554
-28 -32 -48 -65 -48 -78 l0 -23 225 0 225 0 0 -97 c0 -54 -4 -104 -8 -111 -5
-7 -38 -15 -75 -19 -56 -5 -67 -9 -67 -24 0 -18 12 -19 201 -19 183 0 200 1
197 17 -2 12 -20 20 -58 27 l-55 11 -3 107 -3 107 58 3 c50 3 58 6 58 23 0 17
-8 20 -57 23 l-58 3 0 131 0 130 -37 -6 c-21 -4 -50 -9 -65 -12 l-28 -6 0
-119 0 -119 -195 0 -196 0 91 101 c154 172 244 303 309 449 31 69 61 154 61
173 0 13 -150 8 -155 -5z"/>
</g>
</svg>
